<svg width="172" height="164" viewBox="0 0 172 164" fill="none" xmlns="http://www.w3.org/2000/svg">
<g id="Property 1=Vector">
<g id="Vector">
<mask id="path-1-inside-1_207_3869" fill="white">
<path d="M1.82964 62.0215C1.66462 67.5808 3.0373 72.5211 5.06506 77.3268C6.85029 81.5624 9.2656 85.404 12.3785 88.8419C15.2439 92.0082 18.4718 94.6019 22.6273 96.004C26.2378 97.2201 29.7032 96.7552 33.1962 95.5342C36.6892 94.3156 39.7996 92.2847 43.295 91.0931C46.1554 90.1168 48.9432 89.8109 51.5661 91.8076C53.1613 93.0212 53.6913 94.7194 54.0564 96.513C54.2939 97.6777 54.3639 98.8767 54.6365 100.032C55.6741 104.404 58.682 106.778 63.0126 107.717C66.7955 108.539 70.6085 108.398 74.424 107.972C74.5065 107.962 74.5916 107.962 74.6741 107.969C76.9544 108.146 79.2171 107.624 81.4874 107.747C83.5402 107.857 85.6505 108.035 87.4732 109.036C90.1536 110.507 91.2537 113.379 90.5336 116.392C90.2686 117.502 90.0135 118.618 89.8335 119.744C89.736 120.343 89.4185 120.49 88.8959 120.434C88.3408 120.373 88.3333 119.971 88.3058 119.538C88.2058 118.038 88.6909 116.609 88.8634 115.144C89.1909 112.349 87.5882 110.563 85.0954 109.949C82.6676 109.349 80.1973 109.376 77.672 109.619C73.6739 110.005 69.6309 110.123 65.6179 109.883C62.1824 109.677 58.922 108.603 56.3342 106.32C54.3914 104.605 53.2288 102.317 52.8087 99.7257C52.5512 98.1352 52.4912 96.5056 51.8236 94.9885C50.5284 92.0498 48.1456 91.6632 45.6703 92.1697C43.125 92.6884 40.8497 94.0098 38.5119 95.1231C35.704 96.4591 32.8487 97.7021 29.7032 98.1915C24.5576 98.9941 20.1645 97.4036 16.104 94.4355C9.87318 89.8819 5.90017 83.7817 3.0248 76.8277C1.77713 73.8082 0.837013 70.7055 0.389455 67.5319C-0.315636 62.5476 -0.118111 57.5535 1.43459 52.6694C3.12481 47.3597 5.90017 42.669 9.50563 38.3967C10.9758 36.6521 12.5085 34.9759 14.1462 33.3854C17.4317 30.1947 21.0671 27.4199 24.8176 24.7846C29.8933 21.217 35.2865 18.1657 40.7547 15.2172C46.1854 12.2883 51.7486 9.61872 57.3118 6.95405C62.3225 4.55364 67.5781 2.6989 72.9838 1.36044C77.0344 0.357215 81.1924 -0.25451 85.3879 0.102737C89.376 0.440409 93.0814 1.55619 96.2369 4.21842C98.8747 6.44265 100.585 9.31775 102.548 12.0191C104.663 14.9309 107.231 17.2041 110.931 17.8525C112.421 18.1144 113.979 18.0728 115.454 17.6225C118.022 16.8395 120.552 15.8045 123.228 15.5794C125.771 15.364 128.348 15.3836 130.921 15.643C133.919 15.9464 136.802 16.6805 139.58 17.7155C144.491 19.5458 148.911 22.0734 151.974 26.495C154.359 29.9402 154.477 33.5787 153.492 37.4351C152.162 42.6518 153.532 46.9804 157.857 50.433C160.03 52.1678 162.478 53.494 164.648 55.2436C167.751 57.7468 169.561 60.9473 170.816 64.5638C171.689 67.0792 171.942 69.717 171.994 72.3107C172.049 75.1222 171.717 77.9704 170.979 80.7207C170.181 83.6863 169.106 86.5492 167.414 89.1723C164.883 93.0922 161.538 95.9379 156.81 96.9289C154.782 97.3547 152.692 97.1663 150.629 97.2079C149.609 97.2274 148.566 97.2617 147.573 97.4697C145.948 97.8122 144.826 99.158 145.791 101.245C146.391 102.542 147.163 103.736 147.861 104.977C149.064 107.115 149.966 109.352 149.439 111.887C148.874 114.61 146.978 116.262 144.628 117.488C141.575 119.078 138.205 119.9 135.017 121.17C132.552 122.152 130.091 123.081 128.416 125.325C126.793 127.496 126.741 129.803 127.476 132.223C128.491 135.558 130.314 138.524 131.979 141.57C133.949 145.177 135.724 148.884 136.552 152.934C137.075 155.493 137.315 158.072 136.862 160.698C136.735 161.429 136.61 162.19 136.53 162.944C136.475 163.448 136.267 164.094 135.457 163.989C134.537 163.869 134.717 163.11 134.849 162.662C135.549 160.328 135.467 157.942 135.279 155.588C135.052 152.708 134.064 149.98 132.914 147.33C131.421 143.895 129.396 140.719 127.746 137.361C126.528 134.883 125.361 132.392 125.286 129.517C125.201 126.277 126.791 123.982 129.259 122.181C132.332 119.94 136.035 119.015 139.57 117.754C141.3 117.138 143.04 116.553 144.603 115.552C147.879 113.455 148.681 110.502 146.986 107.017C146.123 105.243 144.816 103.709 144.163 101.828C142.983 98.4215 144.531 96.1533 148.149 95.6932C150.734 95.3629 153.324 95.6786 155.905 95.2773C159.132 94.7732 161.743 93.3687 163.866 90.956C167.326 87.0263 168.991 82.3748 169.821 77.3415C170.526 73.0643 170.344 68.8214 169.014 64.718C167.856 61.1528 165.801 58.0991 162.613 55.848C159.92 53.9467 156.915 52.4345 154.667 49.9607C152.709 47.805 151.739 45.248 151.264 42.3998C150.846 39.8942 151.609 37.599 152.102 35.2598C152.649 32.6563 152.144 30.3317 150.809 28.0855C148.144 23.6003 143.793 21.2464 139.11 19.465C136.115 18.3272 132.937 17.7644 129.699 17.3876C125.441 16.8934 121.418 17.5124 117.492 18.9365C110.346 21.5278 104.283 18.1339 100.792 12.8144C99.3047 10.5485 97.7796 8.28516 95.8343 6.34477C93.5465 4.06182 90.7011 2.83348 87.5357 2.29516C83.1952 1.55619 78.9321 2.05291 74.6516 2.96561C69.4459 4.07405 64.5303 5.9288 59.6546 7.95483C55.7266 9.58447 51.9311 11.4808 48.1481 13.3869C41.8748 16.5483 35.6465 19.8076 29.7533 23.6101C26.2053 25.9004 22.6823 28.247 19.5044 31.056C17.6092 32.7297 15.6339 34.3202 13.8662 36.1309C9.14559 40.9635 5.30509 46.3736 3.17982 52.7747C2.15968 55.8406 1.59211 59.0461 1.82964 62.0215Z"/>
<path d="M48.3331 48.7499H73.8489L61.0923 72.5167L48.3331 48.7499Z"/>
<path d="M80.9598 71.0461C79.0971 70.0649 77.6544 68.6726 76.6393 66.8619C75.6217 65.0536 75.1116 62.9542 75.1116 60.5636C75.1116 58.2659 75.6117 56.2203 76.6143 54.4267C77.6169 52.6332 79.0096 51.2384 80.7948 50.2425C82.5801 49.2467 84.6478 48.7475 86.9956 48.7475C90.7211 48.7475 93.634 49.8046 95.7343 51.9187C97.832 54.0328 98.8822 56.9593 98.8822 60.6981C98.8822 61.3735 98.8672 61.8947 98.8347 62.2617H79.6222C79.8397 64.2241 80.6623 65.7632 82.0875 66.8815C83.5127 67.9997 85.3354 68.56 87.5607 68.56C88.9709 68.56 90.3236 68.3153 91.6237 67.8235C92.9239 67.3341 93.9165 66.6906 94.6066 65.8929L97.4245 68.5135C96.3268 69.7712 94.8941 70.75 93.1264 71.4547C91.3562 72.1594 89.4685 72.5118 87.4657 72.5118C84.9904 72.5167 82.8226 72.0248 80.9598 71.0461ZM94.6991 58.633C94.5116 56.7953 93.744 55.3223 92.3963 54.2188C91.0487 53.1152 89.2959 52.5647 87.1357 52.5647C85.1004 52.5647 83.4327 53.0932 82.1325 54.1502C80.8323 55.2073 80.0097 56.7024 79.6672 58.633H94.6991Z"/>
<path d="M115.372 48.7524C115.329 48.7524 115.287 48.7499 115.244 48.7499C113.667 48.7499 112.259 49.1047 111.019 49.8119C109.779 50.5215 108.693 51.6153 107.761 53.0956L107.713 49.1732H103.705V72.5167H108.196V61.0334C108.196 58.6403 108.816 56.7097 110.056 55.244C111.294 53.7783 112.944 53.0467 115.004 53.0467C115.127 53.0467 115.252 53.054 115.374 53.0589V48.7524H115.372Z"/>
<path d="M118.245 70.6888L131.666 52.9341H119.08V48.7475H138.745V50.5288L125.273 68.2835H138.842V72.5167H118.242V70.6888H118.245Z"/>
<path d="M34.9414 48.75C28.2355 48.75 22.7973 54.0696 22.7973 60.6346C22.7973 67.1996 28.233 72.5192 34.9414 72.5192C41.6498 72.5192 47.0855 67.1996 47.0855 60.6346C47.0855 54.0696 41.6473 48.75 34.9414 48.75ZM34.9414 68.5258C30.4883 68.5258 26.8779 64.9925 26.8779 60.6346C26.8779 56.2767 30.4883 52.7433 34.9414 52.7433C39.3945 52.7433 43.0049 56.2742 43.0049 60.6321C43.0049 64.9901 39.3945 68.5258 34.9414 68.5258Z"/>
</mask>
<path d="M1.82964 62.0215C1.66462 67.5808 3.0373 72.5211 5.06506 77.3268C6.85029 81.5624 9.2656 85.404 12.3785 88.8419C15.2439 92.0082 18.4718 94.6019 22.6273 96.004C26.2378 97.2201 29.7032 96.7552 33.1962 95.5342C36.6892 94.3156 39.7996 92.2847 43.295 91.0931C46.1554 90.1168 48.9432 89.8109 51.5661 91.8076C53.1613 93.0212 53.6913 94.7194 54.0564 96.513C54.2939 97.6777 54.3639 98.8767 54.6365 100.032C55.6741 104.404 58.682 106.778 63.0126 107.717C66.7955 108.539 70.6085 108.398 74.424 107.972C74.5065 107.962 74.5916 107.962 74.6741 107.969C76.9544 108.146 79.2171 107.624 81.4874 107.747C83.5402 107.857 85.6505 108.035 87.4732 109.036C90.1536 110.507 91.2537 113.379 90.5336 116.392C90.2686 117.502 90.0135 118.618 89.8335 119.744C89.736 120.343 89.4185 120.49 88.8959 120.434C88.3408 120.373 88.3333 119.971 88.3058 119.538C88.2058 118.038 88.6909 116.609 88.8634 115.144C89.1909 112.349 87.5882 110.563 85.0954 109.949C82.6676 109.349 80.1973 109.376 77.672 109.619C73.6739 110.005 69.6309 110.123 65.6179 109.883C62.1824 109.677 58.922 108.603 56.3342 106.32C54.3914 104.605 53.2288 102.317 52.8087 99.7257C52.5512 98.1352 52.4912 96.5056 51.8236 94.9885C50.5284 92.0498 48.1456 91.6632 45.6703 92.1697C43.125 92.6884 40.8497 94.0098 38.5119 95.1231C35.704 96.4591 32.8487 97.7021 29.7032 98.1915C24.5576 98.9941 20.1645 97.4036 16.104 94.4355C9.87318 89.8819 5.90017 83.7817 3.0248 76.8277C1.77713 73.8082 0.837013 70.7055 0.389455 67.5319C-0.315636 62.5476 -0.118111 57.5535 1.43459 52.6694C3.12481 47.3597 5.90017 42.669 9.50563 38.3967C10.9758 36.6521 12.5085 34.9759 14.1462 33.3854C17.4317 30.1947 21.0671 27.4199 24.8176 24.7846C29.8933 21.217 35.2865 18.1657 40.7547 15.2172C46.1854 12.2883 51.7486 9.61872 57.3118 6.95405C62.3225 4.55364 67.5781 2.6989 72.9838 1.36044C77.0344 0.357215 81.1924 -0.25451 85.3879 0.102737C89.376 0.440409 93.0814 1.55619 96.2369 4.21842C98.8747 6.44265 100.585 9.31775 102.548 12.0191C104.663 14.9309 107.231 17.2041 110.931 17.8525C112.421 18.1144 113.979 18.0728 115.454 17.6225C118.022 16.8395 120.552 15.8045 123.228 15.5794C125.771 15.364 128.348 15.3836 130.921 15.643C133.919 15.9464 136.802 16.6805 139.58 17.7155C144.491 19.5458 148.911 22.0734 151.974 26.495C154.359 29.9402 154.477 33.5787 153.492 37.4351C152.162 42.6518 153.532 46.9804 157.857 50.433C160.03 52.1678 162.478 53.494 164.648 55.2436C167.751 57.7468 169.561 60.9473 170.816 64.5638C171.689 67.0792 171.942 69.717 171.994 72.3107C172.049 75.1222 171.717 77.9704 170.979 80.7207C170.181 83.6863 169.106 86.5492 167.414 89.1723C164.883 93.0922 161.538 95.9379 156.81 96.9289C154.782 97.3547 152.692 97.1663 150.629 97.2079C149.609 97.2274 148.566 97.2617 147.573 97.4697C145.948 97.8122 144.826 99.158 145.791 101.245C146.391 102.542 147.163 103.736 147.861 104.977C149.064 107.115 149.966 109.352 149.439 111.887C148.874 114.61 146.978 116.262 144.628 117.488C141.575 119.078 138.205 119.9 135.017 121.17C132.552 122.152 130.091 123.081 128.416 125.325C126.793 127.496 126.741 129.803 127.476 132.223C128.491 135.558 130.314 138.524 131.979 141.57C133.949 145.177 135.724 148.884 136.552 152.934C137.075 155.493 137.315 158.072 136.862 160.698C136.735 161.429 136.61 162.19 136.53 162.944C136.475 163.448 136.267 164.094 135.457 163.989C134.537 163.869 134.717 163.11 134.849 162.662C135.549 160.328 135.467 157.942 135.279 155.588C135.052 152.708 134.064 149.98 132.914 147.33C131.421 143.895 129.396 140.719 127.746 137.361C126.528 134.883 125.361 132.392 125.286 129.517C125.201 126.277 126.791 123.982 129.259 122.181C132.332 119.94 136.035 119.015 139.57 117.754C141.3 117.138 143.04 116.553 144.603 115.552C147.879 113.455 148.681 110.502 146.986 107.017C146.123 105.243 144.816 103.709 144.163 101.828C142.983 98.4215 144.531 96.1533 148.149 95.6932C150.734 95.3629 153.324 95.6786 155.905 95.2773C159.132 94.7732 161.743 93.3687 163.866 90.956C167.326 87.0263 168.991 82.3748 169.821 77.3415C170.526 73.0643 170.344 68.8214 169.014 64.718C167.856 61.1528 165.801 58.0991 162.613 55.848C159.92 53.9467 156.915 52.4345 154.667 49.9607C152.709 47.805 151.739 45.248 151.264 42.3998C150.846 39.8942 151.609 37.599 152.102 35.2598C152.649 32.6563 152.144 30.3317 150.809 28.0855C148.144 23.6003 143.793 21.2464 139.11 19.465C136.115 18.3272 132.937 17.7644 129.699 17.3876C125.441 16.8934 121.418 17.5124 117.492 18.9365C110.346 21.5278 104.283 18.1339 100.792 12.8144C99.3047 10.5485 97.7796 8.28516 95.8343 6.34477C93.5465 4.06182 90.7011 2.83348 87.5357 2.29516C83.1952 1.55619 78.9321 2.05291 74.6516 2.96561C69.4459 4.07405 64.5303 5.9288 59.6546 7.95483C55.7266 9.58447 51.9311 11.4808 48.1481 13.3869C41.8748 16.5483 35.6465 19.8076 29.7533 23.6101C26.2053 25.9004 22.6823 28.247 19.5044 31.056C17.6092 32.7297 15.6339 34.3202 13.8662 36.1309C9.14559 40.9635 5.30509 46.3736 3.17982 52.7747C2.15968 55.8406 1.59211 59.0461 1.82964 62.0215Z" fill="#BECE00"/>
<path d="M48.3331 48.7499H73.8489L61.0923 72.5167L48.3331 48.7499Z" fill="#BECE00"/>
<path d="M80.9598 71.0461C79.0971 70.0649 77.6544 68.6726 76.6393 66.8619C75.6217 65.0536 75.1116 62.9542 75.1116 60.5636C75.1116 58.2659 75.6117 56.2203 76.6143 54.4267C77.6169 52.6332 79.0096 51.2384 80.7948 50.2425C82.5801 49.2467 84.6478 48.7475 86.9956 48.7475C90.7211 48.7475 93.634 49.8046 95.7343 51.9187C97.832 54.0328 98.8822 56.9593 98.8822 60.6981C98.8822 61.3735 98.8672 61.8947 98.8347 62.2617H79.6222C79.8397 64.2241 80.6623 65.7632 82.0875 66.8815C83.5127 67.9997 85.3354 68.56 87.5607 68.56C88.9709 68.56 90.3236 68.3153 91.6237 67.8235C92.9239 67.3341 93.9165 66.6906 94.6066 65.8929L97.4245 68.5135C96.3268 69.7712 94.8941 70.75 93.1264 71.4547C91.3562 72.1594 89.4685 72.5118 87.4657 72.5118C84.9904 72.5167 82.8226 72.0248 80.9598 71.0461ZM94.6991 58.633C94.5116 56.7953 93.744 55.3223 92.3963 54.2188C91.0487 53.1152 89.2959 52.5647 87.1357 52.5647C85.1004 52.5647 83.4327 53.0932 82.1325 54.1502C80.8323 55.2073 80.0097 56.7024 79.6672 58.633H94.6991Z" fill="#BECE00"/>
<path d="M115.372 48.7524C115.329 48.7524 115.287 48.7499 115.244 48.7499C113.667 48.7499 112.259 49.1047 111.019 49.8119C109.779 50.5215 108.693 51.6153 107.761 53.0956L107.713 49.1732H103.705V72.5167H108.196V61.0334C108.196 58.6403 108.816 56.7097 110.056 55.244C111.294 53.7783 112.944 53.0467 115.004 53.0467C115.127 53.0467 115.252 53.054 115.374 53.0589V48.7524H115.372Z" fill="#BECE00"/>
<path d="M118.245 70.6888L131.666 52.9341H119.08V48.7475H138.745V50.5288L125.273 68.2835H138.842V72.5167H118.242V70.6888H118.245Z" fill="#BECE00"/>
<path d="M34.9414 48.75C28.2355 48.75 22.7973 54.0696 22.7973 60.6346C22.7973 67.1996 28.233 72.5192 34.9414 72.5192C41.6498 72.5192 47.0855 67.1996 47.0855 60.6346C47.0855 54.0696 41.6473 48.75 34.9414 48.75ZM34.9414 68.5258C30.4883 68.5258 26.8779 64.9925 26.8779 60.6346C26.8779 56.2767 30.4883 52.7433 34.9414 52.7433C39.3945 52.7433 43.0049 56.2742 43.0049 60.6321C43.0049 64.9901 39.3945 68.5258 34.9414 68.5258Z" fill="#BECE00"/>
<path d="M1.82964 62.0215C1.66462 67.5808 3.0373 72.5211 5.06506 77.3268C6.85029 81.5624 9.2656 85.404 12.3785 88.8419C15.2439 92.0082 18.4718 94.6019 22.6273 96.004C26.2378 97.2201 29.7032 96.7552 33.1962 95.5342C36.6892 94.3156 39.7996 92.2847 43.295 91.0931C46.1554 90.1168 48.9432 89.8109 51.5661 91.8076C53.1613 93.0212 53.6913 94.7194 54.0564 96.513C54.2939 97.6777 54.3639 98.8767 54.6365 100.032C55.6741 104.404 58.682 106.778 63.0126 107.717C66.7955 108.539 70.6085 108.398 74.424 107.972C74.5065 107.962 74.5916 107.962 74.6741 107.969C76.9544 108.146 79.2171 107.624 81.4874 107.747C83.5402 107.857 85.6505 108.035 87.4732 109.036C90.1536 110.507 91.2537 113.379 90.5336 116.392C90.2686 117.502 90.0135 118.618 89.8335 119.744C89.736 120.343 89.4185 120.49 88.8959 120.434C88.3408 120.373 88.3333 119.971 88.3058 119.538C88.2058 118.038 88.6909 116.609 88.8634 115.144C89.1909 112.349 87.5882 110.563 85.0954 109.949C82.6676 109.349 80.1973 109.376 77.672 109.619C73.6739 110.005 69.6309 110.123 65.6179 109.883C62.1824 109.677 58.922 108.603 56.3342 106.32C54.3914 104.605 53.2288 102.317 52.8087 99.7257C52.5512 98.1352 52.4912 96.5056 51.8236 94.9885C50.5284 92.0498 48.1456 91.6632 45.6703 92.1697C43.125 92.6884 40.8497 94.0098 38.5119 95.1231C35.704 96.4591 32.8487 97.7021 29.7032 98.1915C24.5576 98.9941 20.1645 97.4036 16.104 94.4355C9.87318 89.8819 5.90017 83.7817 3.0248 76.8277C1.77713 73.8082 0.837013 70.7055 0.389455 67.5319C-0.315636 62.5476 -0.118111 57.5535 1.43459 52.6694C3.12481 47.3597 5.90017 42.669 9.50563 38.3967C10.9758 36.6521 12.5085 34.9759 14.1462 33.3854C17.4317 30.1947 21.0671 27.4199 24.8176 24.7846C29.8933 21.217 35.2865 18.1657 40.7547 15.2172C46.1854 12.2883 51.7486 9.61872 57.3118 6.95405C62.3225 4.55364 67.5781 2.6989 72.9838 1.36044C77.0344 0.357215 81.1924 -0.25451 85.3879 0.102737C89.376 0.440409 93.0814 1.55619 96.2369 4.21842C98.8747 6.44265 100.585 9.31775 102.548 12.0191C104.663 14.9309 107.231 17.2041 110.931 17.8525C112.421 18.1144 113.979 18.0728 115.454 17.6225C118.022 16.8395 120.552 15.8045 123.228 15.5794C125.771 15.364 128.348 15.3836 130.921 15.643C133.919 15.9464 136.802 16.6805 139.58 17.7155C144.491 19.5458 148.911 22.0734 151.974 26.495C154.359 29.9402 154.477 33.5787 153.492 37.4351C152.162 42.6518 153.532 46.9804 157.857 50.433C160.03 52.1678 162.478 53.494 164.648 55.2436C167.751 57.7468 169.561 60.9473 170.816 64.5638C171.689 67.0792 171.942 69.717 171.994 72.3107C172.049 75.1222 171.717 77.9704 170.979 80.7207C170.181 83.6863 169.106 86.5492 167.414 89.1723C164.883 93.0922 161.538 95.9379 156.81 96.9289C154.782 97.3547 152.692 97.1663 150.629 97.2079C149.609 97.2274 148.566 97.2617 147.573 97.4697C145.948 97.8122 144.826 99.158 145.791 101.245C146.391 102.542 147.163 103.736 147.861 104.977C149.064 107.115 149.966 109.352 149.439 111.887C148.874 114.61 146.978 116.262 144.628 117.488C141.575 119.078 138.205 119.9 135.017 121.17C132.552 122.152 130.091 123.081 128.416 125.325C126.793 127.496 126.741 129.803 127.476 132.223C128.491 135.558 130.314 138.524 131.979 141.57C133.949 145.177 135.724 148.884 136.552 152.934C137.075 155.493 137.315 158.072 136.862 160.698C136.735 161.429 136.61 162.19 136.53 162.944C136.475 163.448 136.267 164.094 135.457 163.989C134.537 163.869 134.717 163.11 134.849 162.662C135.549 160.328 135.467 157.942 135.279 155.588C135.052 152.708 134.064 149.98 132.914 147.33C131.421 143.895 129.396 140.719 127.746 137.361C126.528 134.883 125.361 132.392 125.286 129.517C125.201 126.277 126.791 123.982 129.259 122.181C132.332 119.94 136.035 119.015 139.57 117.754C141.3 117.138 143.04 116.553 144.603 115.552C147.879 113.455 148.681 110.502 146.986 107.017C146.123 105.243 144.816 103.709 144.163 101.828C142.983 98.4215 144.531 96.1533 148.149 95.6932C150.734 95.3629 153.324 95.6786 155.905 95.2773C159.132 94.7732 161.743 93.3687 163.866 90.956C167.326 87.0263 168.991 82.3748 169.821 77.3415C170.526 73.0643 170.344 68.8214 169.014 64.718C167.856 61.1528 165.801 58.0991 162.613 55.848C159.92 53.9467 156.915 52.4345 154.667 49.9607C152.709 47.805 151.739 45.248 151.264 42.3998C150.846 39.8942 151.609 37.599 152.102 35.2598C152.649 32.6563 152.144 30.3317 150.809 28.0855C148.144 23.6003 143.793 21.2464 139.11 19.465C136.115 18.3272 132.937 17.7644 129.699 17.3876C125.441 16.8934 121.418 17.5124 117.492 18.9365C110.346 21.5278 104.283 18.1339 100.792 12.8144C99.3047 10.5485 97.7796 8.28516 95.8343 6.34477C93.5465 4.06182 90.7011 2.83348 87.5357 2.29516C83.1952 1.55619 78.9321 2.05291 74.6516 2.96561C69.4459 4.07405 64.5303 5.9288 59.6546 7.95483C55.7266 9.58447 51.9311 11.4808 48.1481 13.3869C41.8748 16.5483 35.6465 19.8076 29.7533 23.6101C26.2053 25.9004 22.6823 28.247 19.5044 31.056C17.6092 32.7297 15.6339 34.3202 13.8662 36.1309C9.14559 40.9635 5.30509 46.3736 3.17982 52.7747C2.15968 55.8406 1.59211 59.0461 1.82964 62.0215Z" stroke="#BECE00" stroke-width="4" mask="url(#path-1-inside-1_207_3869)"/>
<path d="M48.3331 48.7499H73.8489L61.0923 72.5167L48.3331 48.7499Z" stroke="#BECE00" stroke-width="4" mask="url(#path-1-inside-1_207_3869)"/>
<path d="M80.9598 71.0461C79.0971 70.0649 77.6544 68.6726 76.6393 66.8619C75.6217 65.0536 75.1116 62.9542 75.1116 60.5636C75.1116 58.2659 75.6117 56.2203 76.6143 54.4267C77.6169 52.6332 79.0096 51.2384 80.7948 50.2425C82.5801 49.2467 84.6478 48.7475 86.9956 48.7475C90.7211 48.7475 93.634 49.8046 95.7343 51.9187C97.832 54.0328 98.8822 56.9593 98.8822 60.6981C98.8822 61.3735 98.8672 61.8947 98.8347 62.2617H79.6222C79.8397 64.2241 80.6623 65.7632 82.0875 66.8815C83.5127 67.9997 85.3354 68.56 87.5607 68.56C88.9709 68.56 90.3236 68.3153 91.6237 67.8235C92.9239 67.3341 93.9165 66.6906 94.6066 65.8929L97.4245 68.5135C96.3268 69.7712 94.8941 70.75 93.1264 71.4547C91.3562 72.1594 89.4685 72.5118 87.4657 72.5118C84.9904 72.5167 82.8226 72.0248 80.9598 71.0461ZM94.6991 58.633C94.5116 56.7953 93.744 55.3223 92.3963 54.2188C91.0487 53.1152 89.2959 52.5647 87.1357 52.5647C85.1004 52.5647 83.4327 53.0932 82.1325 54.1502C80.8323 55.2073 80.0097 56.7024 79.6672 58.633H94.6991Z" stroke="#BECE00" stroke-width="4" mask="url(#path-1-inside-1_207_3869)"/>
<path d="M115.372 48.7524C115.329 48.7524 115.287 48.7499 115.244 48.7499C113.667 48.7499 112.259 49.1047 111.019 49.8119C109.779 50.5215 108.693 51.6153 107.761 53.0956L107.713 49.1732H103.705V72.5167H108.196V61.0334C108.196 58.6403 108.816 56.7097 110.056 55.244C111.294 53.7783 112.944 53.0467 115.004 53.0467C115.127 53.0467 115.252 53.054 115.374 53.0589V48.7524H115.372Z" stroke="#BECE00" stroke-width="4" mask="url(#path-1-inside-1_207_3869)"/>
<path d="M118.245 70.6888L131.666 52.9341H119.08V48.7475H138.745V50.5288L125.273 68.2835H138.842V72.5167H118.242V70.6888H118.245Z" stroke="#BECE00" stroke-width="4" mask="url(#path-1-inside-1_207_3869)"/>
<path d="M34.9414 48.75C28.2355 48.75 22.7973 54.0696 22.7973 60.6346C22.7973 67.1996 28.233 72.5192 34.9414 72.5192C41.6498 72.5192 47.0855 67.1996 47.0855 60.6346C47.0855 54.0696 41.6473 48.75 34.9414 48.75ZM34.9414 68.5258C30.4883 68.5258 26.8779 64.9925 26.8779 60.6346C26.8779 56.2767 30.4883 52.7433 34.9414 52.7433C39.3945 52.7433 43.0049 56.2742 43.0049 60.6321C43.0049 64.9901 39.3945 68.5258 34.9414 68.5258Z" stroke="#BECE00" stroke-width="4" mask="url(#path-1-inside-1_207_3869)"/>
</g>
</g>
</svg>
