<svg width="154" height="148" viewBox="0 0 154 148" fill="none" xmlns="http://www.w3.org/2000/svg">
<g id="Frame 2">
<g id="Vector">
<mask id="path-1-inside-1_710_549" fill="white">
<path d="M13.3935 58.0288C13.2678 62.3339 14.3133 66.1597 15.8577 69.8811C17.2174 73.1611 19.0569 76.1361 21.4278 78.7983C23.6102 81.2503 26.0686 83.2588 29.2336 84.3446C31.9834 85.2863 34.6228 84.9263 37.2832 83.9808C39.9435 83.0371 42.3125 81.4644 44.9747 80.5416C47.1532 79.7855 49.2765 79.5487 51.2742 81.0949C52.4891 82.0347 52.8928 83.3498 53.1709 84.7387C53.3518 85.6406 53.4051 86.5691 53.6127 87.4635C54.403 90.8496 56.6938 92.6876 59.9921 93.4152C62.8734 94.0519 65.7774 93.942 68.6834 93.6123C68.7463 93.6047 68.811 93.6047 68.8739 93.6104C70.6106 93.7468 72.334 93.3432 74.0631 93.438C75.6266 93.5232 77.2338 93.6616 78.622 94.4365C80.6635 95.5754 81.5014 97.7999 80.9529 100.132C80.7511 100.993 80.5568 101.857 80.4197 102.728C80.3455 103.193 80.1036 103.306 79.7056 103.263C79.2828 103.215 79.2771 102.905 79.2562 102.569C79.18 101.408 79.5494 100.301 79.6808 99.1661C79.9303 97.0022 78.7096 95.6189 76.811 95.1433C74.962 94.6791 73.0805 94.6999 71.1571 94.8875C68.1121 95.1869 65.0328 95.2779 61.9764 95.0922C59.3599 94.933 56.8767 94.1012 54.9057 92.3333C53.426 91.005 52.5405 89.2333 52.2206 87.2266C52.0245 85.995 51.9788 84.733 51.4703 83.5582C50.4839 81.2825 48.6691 80.9831 46.7838 81.3753C44.8452 81.777 43.1123 82.8003 41.3317 83.6624C39.1932 84.697 37.0185 85.6596 34.6228 86.0386C30.7037 86.6601 27.3579 85.4284 24.2652 83.13C19.5197 79.6036 16.4937 74.8798 14.3038 69.4946C13.3535 67.1563 12.6375 64.7537 12.2966 62.296C11.7596 58.4362 11.91 54.5688 13.0926 50.7867C14.3799 46.6749 16.4937 43.0424 19.2398 39.734C20.3595 38.383 21.5268 37.085 22.7742 35.8534C25.2764 33.3825 28.0453 31.2337 30.9018 29.1929C34.7676 26.4303 38.8752 24.0674 43.0399 21.7841C47.1761 19.5159 51.4132 17.4486 55.6503 15.3851C59.4665 13.5263 63.4694 12.09 67.5865 11.0535C70.6715 10.2766 73.8384 9.80291 77.0339 10.0796C80.0712 10.341 82.8934 11.2051 85.2967 13.2667C87.3057 14.9891 88.6083 17.2156 90.1032 19.3075C91.7142 21.5624 93.67 23.3227 96.4883 23.8248C97.6233 24.0276 98.8097 23.9954 99.9333 23.6467C101.889 23.0404 103.816 22.2388 105.854 22.0645C107.79 21.8978 109.754 21.9129 111.713 22.1138C113.997 22.3487 116.192 22.9172 118.308 23.7187C122.048 25.1361 125.415 27.0935 127.748 30.5175C129.564 33.1854 129.654 36.0031 128.904 38.9893C127.891 43.0292 128.934 46.3812 132.229 49.0548C133.883 50.3983 135.748 51.4253 137.401 52.7801C139.764 54.7185 141.143 57.197 142.099 59.9976C142.763 61.9455 142.956 63.9881 142.996 65.9967C143.037 68.1739 142.784 70.3795 142.222 72.5093C141.615 74.8059 140.796 77.0229 139.507 79.0541C137.58 82.0897 135.032 84.2934 131.431 85.0608C129.886 85.3905 128.294 85.2446 126.723 85.2768C125.946 85.292 125.152 85.3185 124.396 85.4796C123.158 85.7449 122.303 86.787 123.038 88.4033C123.495 89.4076 124.084 90.3323 124.615 91.293C125.531 92.9491 126.219 94.681 125.817 96.6441C125.386 98.753 123.943 100.032 122.153 100.981C119.828 102.213 117.261 102.85 114.833 103.833C112.955 104.593 111.081 105.313 109.805 107.051C108.569 108.731 108.529 110.518 109.089 112.392C109.862 114.975 111.251 117.271 112.519 119.631C114.019 122.424 115.372 125.294 116.002 128.43C116.4 130.412 116.583 132.409 116.238 134.443C116.141 135.009 116.046 135.598 115.985 136.182C115.943 136.572 115.785 137.073 115.168 136.991C114.467 136.898 114.604 136.311 114.705 135.964C115.238 134.156 115.175 132.309 115.033 130.486C114.859 128.256 114.107 126.143 113.231 124.091C112.094 121.431 110.552 118.971 109.295 116.371C108.367 114.452 107.478 112.523 107.421 110.296C107.356 107.788 108.567 106.01 110.447 104.616C112.787 102.88 115.608 102.164 118.3 101.188C119.618 100.71 120.944 100.258 122.134 99.4826C124.628 97.8587 125.24 95.5716 123.949 92.8733C123.292 91.4995 122.296 90.3115 121.799 88.8543C120.9 86.2167 122.079 84.4602 124.834 84.1039C126.803 83.8481 128.776 84.0925 130.741 83.7818C133.2 83.3914 135.188 82.3038 136.805 80.4355C139.44 77.3923 140.708 73.7902 141.341 69.8925C141.878 66.5803 141.739 63.2946 140.726 60.117C139.844 57.3562 138.279 54.9914 135.851 53.2481C133.8 51.7758 131.511 50.6048 129.799 48.6891C128.308 47.0197 127.569 45.0396 127.207 42.834C126.889 40.8937 127.47 39.1163 127.845 37.3048C128.262 35.2887 127.877 33.4886 126.86 31.7491C124.83 28.2758 121.517 26.453 117.95 25.0735C115.669 24.1924 113.248 23.7566 110.782 23.4648C107.539 23.082 104.475 23.5614 101.485 24.6642C96.0427 26.6709 91.4248 24.0427 88.7663 19.9233C87.6333 18.1687 86.4716 16.4159 84.9901 14.9133C83.2476 13.1454 81.0805 12.1942 78.6697 11.7773C75.3638 11.2051 72.1169 11.5898 68.8567 12.2965C64.8919 13.1549 61.148 14.5912 57.4346 16.1601C54.4429 17.4221 51.5522 18.8906 48.671 20.3667C43.893 22.8149 39.1494 25.3388 34.6609 28.2834C31.9587 30.057 29.2755 31.8742 26.8551 34.0495C25.4116 35.3455 23.9072 36.5772 22.5609 37.9794C18.9655 41.7217 16.0405 45.9112 14.4218 50.8682C13.6449 53.2424 13.2126 55.7247 13.3935 58.0288Z"/>
<path d="M48.8119 47.7515H68.2454L58.5296 66.1562L48.8119 47.7515Z"/>
<path d="M73.6613 65.0174C72.2426 64.2576 71.1438 63.1794 70.3706 61.7772C69.5956 60.3769 69.2071 58.7511 69.2071 56.8998C69.2071 55.1206 69.588 53.5365 70.3516 52.1475C71.1152 50.7586 72.1759 49.6785 73.5356 48.9073C74.8953 48.1361 76.4702 47.7496 78.2583 47.7496C81.0957 47.7496 83.3143 48.5682 84.9139 50.2053C86.5116 51.8425 87.3114 54.1087 87.3114 57.004C87.3114 57.527 87.3 57.9306 87.2752 58.2149H72.6425C72.8082 59.7345 73.4347 60.9264 74.5201 61.7923C75.6056 62.6583 76.9938 63.0922 78.6887 63.0922C79.7627 63.0922 80.793 62.9027 81.7832 62.5219C82.7734 62.1429 83.5295 61.6445 84.055 61.0268L86.2012 63.0562C85.3652 64.0302 84.274 64.7881 82.9277 65.3338C81.5794 65.8795 80.1417 66.1524 78.6163 66.1524C76.731 66.1562 75.08 65.7753 73.6613 65.0174ZM84.1255 55.4048C83.9827 53.9818 83.3981 52.8411 82.3716 51.9865C81.3452 51.1319 80.0103 50.7056 78.365 50.7056C76.8148 50.7056 75.5447 51.1148 74.5544 51.9334C73.5642 52.752 72.9377 53.9098 72.6768 55.4048H84.1255Z"/>
<path d="M99.8704 47.7534C99.838 47.7534 99.8056 47.7515 99.7733 47.7515C98.5716 47.7515 97.4995 48.0262 96.555 48.5738C95.6104 49.1234 94.784 49.9703 94.0737 51.1167L94.0375 48.0793H90.9848V66.1562H94.405V57.2636C94.405 55.4105 94.8773 53.9154 95.8218 52.7804C96.7645 51.6454 98.0213 51.0788 99.5905 51.0788C99.6838 51.0788 99.779 51.0845 99.8723 51.0883V47.7534H99.8704Z"/>
<path d="M102.058 64.7407L112.281 50.9917H102.694V47.7496H117.672V49.129L107.411 62.8781H117.746V66.1562H102.057V64.7407H102.058Z"/>
<path d="M38.6123 47.7515C33.505 47.7515 29.3631 51.8709 29.3631 56.9548C29.3631 62.0387 33.5031 66.1581 38.6123 66.1581C43.7216 66.1581 47.8616 62.0387 47.8616 56.9548C47.8616 51.8709 43.7197 47.7515 38.6123 47.7515ZM38.6123 63.0657C35.2208 63.0657 32.4709 60.3296 32.4709 56.9548C32.4709 53.5801 35.2208 50.8439 38.6123 50.8439C42.0039 50.8439 44.7538 53.5782 44.7538 56.9529C44.7538 60.3277 42.0039 63.0657 38.6123 63.0657Z"/>
</mask>
<path d="M13.3935 58.0288C13.2678 62.3339 14.3133 66.1597 15.8577 69.8811C17.2174 73.1611 19.0569 76.1361 21.4278 78.7983C23.6102 81.2503 26.0686 83.2588 29.2336 84.3446C31.9834 85.2863 34.6228 84.9263 37.2832 83.9808C39.9435 83.0371 42.3125 81.4644 44.9747 80.5416C47.1532 79.7855 49.2765 79.5487 51.2742 81.0949C52.4891 82.0347 52.8928 83.3498 53.1709 84.7387C53.3518 85.6406 53.4051 86.5691 53.6127 87.4635C54.403 90.8496 56.6938 92.6876 59.9921 93.4152C62.8734 94.0519 65.7774 93.942 68.6834 93.6123C68.7463 93.6047 68.811 93.6047 68.8739 93.6104C70.6106 93.7468 72.334 93.3432 74.0631 93.438C75.6266 93.5232 77.2338 93.6616 78.622 94.4365C80.6635 95.5754 81.5014 97.7999 80.9529 100.132C80.7511 100.993 80.5568 101.857 80.4197 102.728C80.3455 103.193 80.1036 103.306 79.7056 103.263C79.2828 103.215 79.2771 102.905 79.2562 102.569C79.18 101.408 79.5494 100.301 79.6808 99.1661C79.9303 97.0022 78.7096 95.6189 76.811 95.1433C74.962 94.6791 73.0805 94.6999 71.1571 94.8875C68.1121 95.1869 65.0328 95.2779 61.9764 95.0922C59.3599 94.933 56.8767 94.1012 54.9057 92.3333C53.426 91.005 52.5405 89.2333 52.2206 87.2266C52.0245 85.995 51.9788 84.733 51.4703 83.5582C50.4839 81.2825 48.6691 80.9831 46.7838 81.3753C44.8452 81.777 43.1123 82.8003 41.3317 83.6624C39.1932 84.697 37.0185 85.6596 34.6228 86.0386C30.7037 86.6601 27.3579 85.4284 24.2652 83.13C19.5197 79.6036 16.4937 74.8798 14.3038 69.4946C13.3535 67.1563 12.6375 64.7537 12.2966 62.296C11.7596 58.4362 11.91 54.5688 13.0926 50.7867C14.3799 46.6749 16.4937 43.0424 19.2398 39.734C20.3595 38.383 21.5268 37.085 22.7742 35.8534C25.2764 33.3825 28.0453 31.2337 30.9018 29.1929C34.7676 26.4303 38.8752 24.0674 43.0399 21.7841C47.1761 19.5159 51.4132 17.4486 55.6503 15.3851C59.4665 13.5263 63.4694 12.09 67.5865 11.0535C70.6715 10.2766 73.8384 9.80291 77.0339 10.0796C80.0712 10.341 82.8934 11.2051 85.2967 13.2667C87.3057 14.9891 88.6083 17.2156 90.1032 19.3075C91.7142 21.5624 93.67 23.3227 96.4883 23.8248C97.6233 24.0276 98.8097 23.9954 99.9333 23.6467C101.889 23.0404 103.816 22.2388 105.854 22.0645C107.79 21.8978 109.754 21.9129 111.713 22.1138C113.997 22.3487 116.192 22.9172 118.308 23.7187C122.048 25.1361 125.415 27.0935 127.748 30.5175C129.564 33.1854 129.654 36.0031 128.904 38.9893C127.891 43.0292 128.934 46.3812 132.229 49.0548C133.883 50.3983 135.748 51.4253 137.401 52.7801C139.764 54.7185 141.143 57.197 142.099 59.9976C142.763 61.9455 142.956 63.9881 142.996 65.9967C143.037 68.1739 142.784 70.3795 142.222 72.5093C141.615 74.8059 140.796 77.0229 139.507 79.0541C137.58 82.0897 135.032 84.2934 131.431 85.0608C129.886 85.3905 128.294 85.2446 126.723 85.2768C125.946 85.292 125.152 85.3185 124.396 85.4796C123.158 85.7449 122.303 86.787 123.038 88.4033C123.495 89.4076 124.084 90.3323 124.615 91.293C125.531 92.9491 126.219 94.681 125.817 96.6441C125.386 98.753 123.943 100.032 122.153 100.981C119.828 102.213 117.261 102.85 114.833 103.833C112.955 104.593 111.081 105.313 109.805 107.051C108.569 108.731 108.529 110.518 109.089 112.392C109.862 114.975 111.251 117.271 112.519 119.631C114.019 122.424 115.372 125.294 116.002 128.43C116.4 130.412 116.583 132.409 116.238 134.443C116.141 135.009 116.046 135.598 115.985 136.182C115.943 136.572 115.785 137.073 115.168 136.991C114.467 136.898 114.604 136.311 114.705 135.964C115.238 134.156 115.175 132.309 115.033 130.486C114.859 128.256 114.107 126.143 113.231 124.091C112.094 121.431 110.552 118.971 109.295 116.371C108.367 114.452 107.478 112.523 107.421 110.296C107.356 107.788 108.567 106.01 110.447 104.616C112.787 102.88 115.608 102.164 118.3 101.188C119.618 100.71 120.944 100.258 122.134 99.4826C124.628 97.8587 125.24 95.5716 123.949 92.8733C123.292 91.4995 122.296 90.3115 121.799 88.8543C120.9 86.2167 122.079 84.4602 124.834 84.1039C126.803 83.8481 128.776 84.0925 130.741 83.7818C133.2 83.3914 135.188 82.3038 136.805 80.4355C139.44 77.3923 140.708 73.7902 141.341 69.8925C141.878 66.5803 141.739 63.2946 140.726 60.117C139.844 57.3562 138.279 54.9914 135.851 53.2481C133.8 51.7758 131.511 50.6048 129.799 48.6891C128.308 47.0197 127.569 45.0396 127.207 42.834C126.889 40.8937 127.47 39.1163 127.845 37.3048C128.262 35.2887 127.877 33.4886 126.86 31.7491C124.83 28.2758 121.517 26.453 117.95 25.0735C115.669 24.1924 113.248 23.7566 110.782 23.4648C107.539 23.082 104.475 23.5614 101.485 24.6642C96.0427 26.6709 91.4248 24.0427 88.7663 19.9233C87.6333 18.1687 86.4716 16.4159 84.9901 14.9133C83.2476 13.1454 81.0805 12.1942 78.6697 11.7773C75.3638 11.2051 72.1169 11.5898 68.8567 12.2965C64.8919 13.1549 61.148 14.5912 57.4346 16.1601C54.4429 17.4221 51.5522 18.8906 48.671 20.3667C43.893 22.8149 39.1494 25.3388 34.6609 28.2834C31.9587 30.057 29.2755 31.8742 26.8551 34.0495C25.4116 35.3455 23.9072 36.5772 22.5609 37.9794C18.9655 41.7217 16.0405 45.9112 14.4218 50.8682C13.6449 53.2424 13.2126 55.7247 13.3935 58.0288Z" fill="#F5F5F5"/>
<path d="M48.8119 47.7515H68.2454L58.5296 66.1562L48.8119 47.7515Z" fill="#F5F5F5"/>
<path d="M73.6613 65.0174C72.2426 64.2576 71.1438 63.1794 70.3706 61.7772C69.5956 60.3769 69.2071 58.7511 69.2071 56.8998C69.2071 55.1206 69.588 53.5365 70.3516 52.1475C71.1152 50.7586 72.1759 49.6785 73.5356 48.9073C74.8953 48.1361 76.4702 47.7496 78.2583 47.7496C81.0957 47.7496 83.3143 48.5682 84.9139 50.2053C86.5116 51.8425 87.3114 54.1087 87.3114 57.004C87.3114 57.527 87.3 57.9306 87.2752 58.2149H72.6425C72.8082 59.7345 73.4347 60.9264 74.5201 61.7923C75.6056 62.6583 76.9938 63.0922 78.6887 63.0922C79.7627 63.0922 80.793 62.9027 81.7832 62.5219C82.7734 62.1429 83.5295 61.6445 84.055 61.0268L86.2012 63.0562C85.3652 64.0302 84.274 64.7881 82.9277 65.3338C81.5794 65.8795 80.1417 66.1524 78.6163 66.1524C76.731 66.1562 75.08 65.7753 73.6613 65.0174ZM84.1255 55.4048C83.9827 53.9818 83.3981 52.8411 82.3716 51.9865C81.3452 51.1319 80.0103 50.7056 78.365 50.7056C76.8148 50.7056 75.5447 51.1148 74.5544 51.9334C73.5642 52.752 72.9377 53.9098 72.6768 55.4048H84.1255Z" fill="#F5F5F5"/>
<path d="M99.8704 47.7534C99.838 47.7534 99.8056 47.7515 99.7733 47.7515C98.5716 47.7515 97.4995 48.0262 96.555 48.5738C95.6104 49.1234 94.784 49.9703 94.0737 51.1167L94.0375 48.0793H90.9848V66.1562H94.405V57.2636C94.405 55.4105 94.8773 53.9154 95.8218 52.7804C96.7645 51.6454 98.0213 51.0788 99.5905 51.0788C99.6838 51.0788 99.779 51.0845 99.8723 51.0883V47.7534H99.8704Z" fill="#F5F5F5"/>
<path d="M102.058 64.7407L112.281 50.9917H102.694V47.7496H117.672V49.129L107.411 62.8781H117.746V66.1562H102.057V64.7407H102.058Z" fill="#F5F5F5"/>
<path d="M38.6123 47.7515C33.505 47.7515 29.3631 51.8709 29.3631 56.9548C29.3631 62.0387 33.5031 66.1581 38.6123 66.1581C43.7216 66.1581 47.8616 62.0387 47.8616 56.9548C47.8616 51.8709 43.7197 47.7515 38.6123 47.7515ZM38.6123 63.0657C35.2208 63.0657 32.4709 60.3296 32.4709 56.9548C32.4709 53.5801 35.2208 50.8439 38.6123 50.8439C42.0039 50.8439 44.7538 53.5782 44.7538 56.9529C44.7538 60.3277 42.0039 63.0657 38.6123 63.0657Z" fill="#F5F5F5"/>
<path d="M13.3935 58.0288C13.2678 62.3339 14.3133 66.1597 15.8577 69.8811C17.2174 73.1611 19.0569 76.1361 21.4278 78.7983C23.6102 81.2503 26.0686 83.2588 29.2336 84.3446C31.9834 85.2863 34.6228 84.9263 37.2832 83.9808C39.9435 83.0371 42.3125 81.4644 44.9747 80.5416C47.1532 79.7855 49.2765 79.5487 51.2742 81.0949C52.4891 82.0347 52.8928 83.3498 53.1709 84.7387C53.3518 85.6406 53.4051 86.5691 53.6127 87.4635C54.403 90.8496 56.6938 92.6876 59.9921 93.4152C62.8734 94.0519 65.7774 93.942 68.6834 93.6123C68.7463 93.6047 68.811 93.6047 68.8739 93.6104C70.6106 93.7468 72.334 93.3432 74.0631 93.438C75.6266 93.5232 77.2338 93.6616 78.622 94.4365C80.6635 95.5754 81.5014 97.7999 80.9529 100.132C80.7511 100.993 80.5568 101.857 80.4197 102.728C80.3455 103.193 80.1036 103.306 79.7056 103.263C79.2828 103.215 79.2771 102.905 79.2562 102.569C79.18 101.408 79.5494 100.301 79.6808 99.1661C79.9303 97.0022 78.7096 95.6189 76.811 95.1433C74.962 94.6791 73.0805 94.6999 71.1571 94.8875C68.1121 95.1869 65.0328 95.2779 61.9764 95.0922C59.3599 94.933 56.8767 94.1012 54.9057 92.3333C53.426 91.005 52.5405 89.2333 52.2206 87.2266C52.0245 85.995 51.9788 84.733 51.4703 83.5582C50.4839 81.2825 48.6691 80.9831 46.7838 81.3753C44.8452 81.777 43.1123 82.8003 41.3317 83.6624C39.1932 84.697 37.0185 85.6596 34.6228 86.0386C30.7037 86.6601 27.3579 85.4284 24.2652 83.13C19.5197 79.6036 16.4937 74.8798 14.3038 69.4946C13.3535 67.1563 12.6375 64.7537 12.2966 62.296C11.7596 58.4362 11.91 54.5688 13.0926 50.7867C14.3799 46.6749 16.4937 43.0424 19.2398 39.734C20.3595 38.383 21.5268 37.085 22.7742 35.8534C25.2764 33.3825 28.0453 31.2337 30.9018 29.1929C34.7676 26.4303 38.8752 24.0674 43.0399 21.7841C47.1761 19.5159 51.4132 17.4486 55.6503 15.3851C59.4665 13.5263 63.4694 12.09 67.5865 11.0535C70.6715 10.2766 73.8384 9.80291 77.0339 10.0796C80.0712 10.341 82.8934 11.2051 85.2967 13.2667C87.3057 14.9891 88.6083 17.2156 90.1032 19.3075C91.7142 21.5624 93.67 23.3227 96.4883 23.8248C97.6233 24.0276 98.8097 23.9954 99.9333 23.6467C101.889 23.0404 103.816 22.2388 105.854 22.0645C107.79 21.8978 109.754 21.9129 111.713 22.1138C113.997 22.3487 116.192 22.9172 118.308 23.7187C122.048 25.1361 125.415 27.0935 127.748 30.5175C129.564 33.1854 129.654 36.0031 128.904 38.9893C127.891 43.0292 128.934 46.3812 132.229 49.0548C133.883 50.3983 135.748 51.4253 137.401 52.7801C139.764 54.7185 141.143 57.197 142.099 59.9976C142.763 61.9455 142.956 63.9881 142.996 65.9967C143.037 68.1739 142.784 70.3795 142.222 72.5093C141.615 74.8059 140.796 77.0229 139.507 79.0541C137.58 82.0897 135.032 84.2934 131.431 85.0608C129.886 85.3905 128.294 85.2446 126.723 85.2768C125.946 85.292 125.152 85.3185 124.396 85.4796C123.158 85.7449 122.303 86.787 123.038 88.4033C123.495 89.4076 124.084 90.3323 124.615 91.293C125.531 92.9491 126.219 94.681 125.817 96.6441C125.386 98.753 123.943 100.032 122.153 100.981C119.828 102.213 117.261 102.85 114.833 103.833C112.955 104.593 111.081 105.313 109.805 107.051C108.569 108.731 108.529 110.518 109.089 112.392C109.862 114.975 111.251 117.271 112.519 119.631C114.019 122.424 115.372 125.294 116.002 128.43C116.4 130.412 116.583 132.409 116.238 134.443C116.141 135.009 116.046 135.598 115.985 136.182C115.943 136.572 115.785 137.073 115.168 136.991C114.467 136.898 114.604 136.311 114.705 135.964C115.238 134.156 115.175 132.309 115.033 130.486C114.859 128.256 114.107 126.143 113.231 124.091C112.094 121.431 110.552 118.971 109.295 116.371C108.367 114.452 107.478 112.523 107.421 110.296C107.356 107.788 108.567 106.01 110.447 104.616C112.787 102.88 115.608 102.164 118.3 101.188C119.618 100.71 120.944 100.258 122.134 99.4826C124.628 97.8587 125.24 95.5716 123.949 92.8733C123.292 91.4995 122.296 90.3115 121.799 88.8543C120.9 86.2167 122.079 84.4602 124.834 84.1039C126.803 83.8481 128.776 84.0925 130.741 83.7818C133.2 83.3914 135.188 82.3038 136.805 80.4355C139.44 77.3923 140.708 73.7902 141.341 69.8925C141.878 66.5803 141.739 63.2946 140.726 60.117C139.844 57.3562 138.279 54.9914 135.851 53.2481C133.8 51.7758 131.511 50.6048 129.799 48.6891C128.308 47.0197 127.569 45.0396 127.207 42.834C126.889 40.8937 127.47 39.1163 127.845 37.3048C128.262 35.2887 127.877 33.4886 126.86 31.7491C124.83 28.2758 121.517 26.453 117.95 25.0735C115.669 24.1924 113.248 23.7566 110.782 23.4648C107.539 23.082 104.475 23.5614 101.485 24.6642C96.0427 26.6709 91.4248 24.0427 88.7663 19.9233C87.6333 18.1687 86.4716 16.4159 84.9901 14.9133C83.2476 13.1454 81.0805 12.1942 78.6697 11.7773C75.3638 11.2051 72.1169 11.5898 68.8567 12.2965C64.8919 13.1549 61.148 14.5912 57.4346 16.1601C54.4429 17.4221 51.5522 18.8906 48.671 20.3667C43.893 22.8149 39.1494 25.3388 34.6609 28.2834C31.9587 30.057 29.2755 31.8742 26.8551 34.0495C25.4116 35.3455 23.9072 36.5772 22.5609 37.9794C18.9655 41.7217 16.0405 45.9112 14.4218 50.8682C13.6449 53.2424 13.2126 55.7247 13.3935 58.0288Z" stroke="#F5F5F5" stroke-width="4" mask="url(#path-1-inside-1_710_549)"/>
<path d="M48.8119 47.7515H68.2454L58.5296 66.1562L48.8119 47.7515Z" stroke="#F5F5F5" stroke-width="4" mask="url(#path-1-inside-1_710_549)"/>
<path d="M73.6613 65.0174C72.2426 64.2576 71.1438 63.1794 70.3706 61.7772C69.5956 60.3769 69.2071 58.7511 69.2071 56.8998C69.2071 55.1206 69.588 53.5365 70.3516 52.1475C71.1152 50.7586 72.1759 49.6785 73.5356 48.9073C74.8953 48.1361 76.4702 47.7496 78.2583 47.7496C81.0957 47.7496 83.3143 48.5682 84.9139 50.2053C86.5116 51.8425 87.3114 54.1087 87.3114 57.004C87.3114 57.527 87.3 57.9306 87.2752 58.2149H72.6425C72.8082 59.7345 73.4347 60.9264 74.5201 61.7923C75.6056 62.6583 76.9938 63.0922 78.6887 63.0922C79.7627 63.0922 80.793 62.9027 81.7832 62.5219C82.7734 62.1429 83.5295 61.6445 84.055 61.0268L86.2012 63.0562C85.3652 64.0302 84.274 64.7881 82.9277 65.3338C81.5794 65.8795 80.1417 66.1524 78.6163 66.1524C76.731 66.1562 75.08 65.7753 73.6613 65.0174ZM84.1255 55.4048C83.9827 53.9818 83.3981 52.8411 82.3716 51.9865C81.3452 51.1319 80.0103 50.7056 78.365 50.7056C76.8148 50.7056 75.5447 51.1148 74.5544 51.9334C73.5642 52.752 72.9377 53.9098 72.6768 55.4048H84.1255Z" stroke="#F5F5F5" stroke-width="4" mask="url(#path-1-inside-1_710_549)"/>
<path d="M99.8704 47.7534C99.838 47.7534 99.8056 47.7515 99.7733 47.7515C98.5716 47.7515 97.4995 48.0262 96.555 48.5738C95.6104 49.1234 94.784 49.9703 94.0737 51.1167L94.0375 48.0793H90.9848V66.1562H94.405V57.2636C94.405 55.4105 94.8773 53.9154 95.8218 52.7804C96.7645 51.6454 98.0213 51.0788 99.5905 51.0788C99.6838 51.0788 99.779 51.0845 99.8723 51.0883V47.7534H99.8704Z" stroke="#F5F5F5" stroke-width="4" mask="url(#path-1-inside-1_710_549)"/>
<path d="M102.058 64.7407L112.281 50.9917H102.694V47.7496H117.672V49.129L107.411 62.8781H117.746V66.1562H102.057V64.7407H102.058Z" stroke="#F5F5F5" stroke-width="4" mask="url(#path-1-inside-1_710_549)"/>
<path d="M38.6123 47.7515C33.505 47.7515 29.3631 51.8709 29.3631 56.9548C29.3631 62.0387 33.5031 66.1581 38.6123 66.1581C43.7216 66.1581 47.8616 62.0387 47.8616 56.9548C47.8616 51.8709 43.7197 47.7515 38.6123 47.7515ZM38.6123 63.0657C35.2208 63.0657 32.4709 60.3296 32.4709 56.9548C32.4709 53.5801 35.2208 50.8439 38.6123 50.8439C42.0039 50.8439 44.7538 53.5782 44.7538 56.9529C44.7538 60.3277 42.0039 63.0657 38.6123 63.0657Z" stroke="#F5F5F5" stroke-width="4" mask="url(#path-1-inside-1_710_549)"/>
</g>
</g>
</svg>
