<svg width="16" height="15" viewBox="0 0 16 15" fill="none" xmlns="http://www.w3.org/2000/svg">
<path id="Vector" d="M7.875 0C3.74 0 0.375 3.365 0.375 7.5C0.375 11.635 3.74 15 7.875 15C12.01 15 15.375 11.635 15.375 7.5C15.375 3.365 12.01 0 7.875 0ZM7.875 1.25C11.3344 1.25 14.125 4.04063 14.125 7.5C14.1265 8.99623 13.59 10.4431 12.6133 11.5766C11.6367 12.7101 10.285 13.4547 8.805 13.6744V9.3225H10.585L10.8644 7.51438H8.805V6.52688C8.805 5.77688 9.05188 5.11 9.75375 5.11H10.8819V3.5325C10.6838 3.50563 10.2644 3.4475 9.47188 3.4475C7.81687 3.4475 6.84687 4.32125 6.84687 6.3125V7.51438H5.14563V9.3225H6.84687V13.6588C5.38734 13.4185 4.06077 12.6672 3.10418 11.539C2.14759 10.4108 1.62331 8.97917 1.625 7.5C1.625 4.04063 4.41563 1.25 7.875 1.25Z" fill="#F5F5F5"/>
</svg>
