<svg width="16" height="15" viewBox="0 0 16 15" fill="none" xmlns="http://www.w3.org/2000/svg">
<path id="Vector" d="M7.875 5.25C7.27826 5.25 6.70597 5.48705 6.28401 5.90901C5.86205 6.33097 5.625 6.90326 5.625 7.5C5.625 8.09674 5.86205 8.66903 6.28401 9.09099C6.70597 9.51295 7.27826 9.75 7.875 9.75C8.47174 9.75 9.04403 9.51295 9.46599 9.09099C9.88795 8.66903 10.125 8.09674 10.125 7.5C10.125 6.90326 9.88795 6.33097 9.46599 5.90901C9.04403 5.48705 8.47174 5.25 7.875 5.25ZM7.875 3.75C8.86956 3.75 9.82339 4.14509 10.5267 4.84835C11.2299 5.55161 11.625 6.50544 11.625 7.5C11.625 8.49456 11.2299 9.44839 10.5267 10.1517C9.82339 10.8549 8.86956 11.25 7.875 11.25C6.88044 11.25 5.92661 10.8549 5.22335 10.1517C4.52009 9.44839 4.125 8.49456 4.125 7.5C4.125 6.50544 4.52009 5.55161 5.22335 4.84835C5.92661 4.14509 6.88044 3.75 7.875 3.75ZM12.75 3.5625C12.75 3.81114 12.6512 4.0496 12.4754 4.22541C12.2996 4.40123 12.0611 4.5 11.8125 4.5C11.5639 4.5 11.3254 4.40123 11.1496 4.22541C10.9738 4.0496 10.875 3.81114 10.875 3.5625C10.875 3.31386 10.9738 3.0754 11.1496 2.89959C11.3254 2.72377 11.5639 2.625 11.8125 2.625C12.0611 2.625 12.2996 2.72377 12.4754 2.89959C12.6512 3.0754 12.75 3.31386 12.75 3.5625ZM7.875 1.5C6.0195 1.5 5.7165 1.50525 4.85325 1.5435C4.26525 1.57125 3.87075 1.65 3.50475 1.7925C3.19846 1.90495 2.92156 2.0852 2.69475 2.31975C2.46001 2.54655 2.27951 2.82344 2.16675 3.12975C2.02425 3.49725 1.9455 3.891 1.9185 4.47825C1.8795 5.30625 1.87425 5.59575 1.87425 7.5C1.87425 9.35625 1.8795 9.6585 1.91775 10.5217C1.9455 11.109 2.02425 11.5043 2.166 11.8695C2.2935 12.1958 2.4435 12.4305 2.6925 12.6795C2.94525 12.9315 3.18 13.0822 3.5025 13.2067C3.873 13.35 4.2675 13.4295 4.8525 13.4565C5.6805 13.4955 5.97 13.5 7.87425 13.5C9.7305 13.5 10.0328 13.4948 10.896 13.4565C11.4825 13.4288 11.877 13.35 12.2438 13.2083C12.5498 13.0952 12.8265 12.9151 13.0538 12.681C13.3065 12.429 13.4573 12.1942 13.5818 11.871C13.7243 11.502 13.8038 11.1075 13.8307 10.521C13.8698 9.69375 13.8743 9.4035 13.8743 7.5C13.8743 5.6445 13.869 5.3415 13.8307 4.47825C13.803 3.89175 13.7235 3.49575 13.5818 3.12975C13.4687 2.82376 13.2885 2.54699 13.0545 2.31975C12.8278 2.08488 12.5509 1.90438 12.2445 1.79175C11.877 1.64925 11.4825 1.5705 10.896 1.5435C10.0687 1.5045 9.78 1.5 7.875 1.5ZM7.875 0C9.91275 0 10.167 0.00749996 10.9673 0.045C11.7653 0.0825 12.3098 0.20775 12.7875 0.39375C13.2825 0.58425 13.6995 0.84225 14.1165 1.2585C14.4979 1.63342 14.793 2.08694 14.9813 2.5875C15.1665 3.06525 15.2925 3.60975 15.33 4.4085C15.3653 5.208 15.375 5.46225 15.375 7.5C15.375 9.53775 15.3675 9.792 15.33 10.5915C15.2925 11.3903 15.1665 11.934 14.9813 12.4125C14.7935 12.9133 14.4983 13.3669 14.1165 13.7415C13.7415 14.1227 13.288 14.4178 12.7875 14.6063C12.3098 14.7915 11.7653 14.9175 10.9673 14.955C10.167 14.9903 9.91275 15 7.875 15C5.83725 15 5.583 14.9925 4.78275 14.955C3.98475 14.9175 3.441 14.7915 2.9625 14.6063C2.46174 14.4184 2.00815 14.1232 1.6335 13.7415C1.25207 13.3666 0.95697 12.9131 0.76875 12.4125C0.58275 11.9347 0.4575 11.3903 0.42 10.5915C0.384 9.792 0.375 9.53775 0.375 7.5C0.375 5.46225 0.3825 5.208 0.42 4.4085C0.4575 3.609 0.58275 3.066 0.76875 2.5875C0.956427 2.08663 1.2516 1.63299 1.6335 1.2585C2.00825 0.876923 2.46182 0.581797 2.9625 0.39375C3.44025 0.20775 3.984 0.0825 4.78275 0.045C5.583 0.00974996 5.83725 0 7.875 0Z" fill="#F5F5F5"/>
</svg>
