<svg width="16" height="15" viewBox="0 0 16 15" fill="none" xmlns="http://www.w3.org/2000/svg">
<path id="Vector" d="M14.1823 0.000104872H1.47748C1.33467 -0.00187857 1.19286 0.0242902 1.06016 0.0771166C0.927465 0.129943 0.806471 0.208392 0.704094 0.307985C0.601716 0.407577 0.519959 0.526361 0.463493 0.657553C0.407026 0.788745 0.376956 0.929775 0.375 1.07259V13.9274C0.376956 14.0702 0.407026 14.2113 0.463493 14.3424C0.519959 14.4736 0.601716 14.5924 0.704094 14.692C0.806471 14.7916 0.927465 14.8701 1.06016 14.9229C1.19286 14.9757 1.33467 15.0019 1.47748 14.9999H14.1823C14.3251 15.0019 14.4669 14.9757 14.5996 14.9229C14.7323 14.8701 14.8533 14.7916 14.9557 14.692C15.0581 14.5924 15.1398 14.4736 15.1963 14.3424C15.2528 14.2113 15.2828 14.0702 15.2848 13.9274V1.07259C15.2828 0.929775 15.2528 0.788745 15.1963 0.657553C15.1398 0.526361 15.0581 0.407577 14.9557 0.307985C14.8533 0.208392 14.7323 0.129943 14.5996 0.0771166C14.4669 0.0242902 14.3251 -0.00187857 14.1823 0.000104872ZM4.89744 12.5549H2.64747V5.80502H4.89744V12.5549ZM3.77245 4.86004C3.46215 4.86004 3.16456 4.73677 2.94515 4.51736C2.72573 4.29794 2.60247 4.00035 2.60247 3.69005C2.60247 3.37975 2.72573 3.08216 2.94515 2.86275C3.16456 2.64334 3.46215 2.52007 3.77245 2.52007C3.93722 2.50138 4.10408 2.51771 4.2621 2.56798C4.42012 2.61825 4.56575 2.70133 4.68943 2.81179C4.81312 2.92224 4.91208 3.05757 4.97984 3.20892C5.0476 3.36027 5.08262 3.52423 5.08262 3.69005C5.08262 3.85588 5.0476 4.01983 4.97984 4.17118C4.91208 4.32254 4.81312 4.45787 4.68943 4.56832C4.56575 4.67877 4.42012 4.76185 4.2621 4.81213C4.10408 4.8624 3.93722 4.87872 3.77245 4.86004ZM13.0123 12.5549H10.7624V8.93248C10.7624 8.02499 10.4399 7.4325 9.62237 7.4325C9.36937 7.43435 9.12302 7.51371 8.91651 7.65988C8.71 7.80604 8.55325 8.012 8.46739 8.24999C8.4087 8.42627 8.38327 8.61191 8.39239 8.79748V12.5474H6.14242V5.79752H8.39239V6.75001C8.59678 6.39534 8.89406 6.10316 9.25221 5.90492C9.61035 5.70669 10.0158 5.60992 10.4249 5.62503C11.9248 5.62503 13.0123 6.59251 13.0123 8.66998V12.5549Z" fill="#F5F5F5"/>
</svg>
