<svg width="18" height="15" viewBox="0 0 18 15" fill="none" xmlns="http://www.w3.org/2000/svg">
<path id="Vector" fill-rule="evenodd" clip-rule="evenodd" d="M4.07108 9.08522C4.10733 9.0973 4.14461 9.10606 4.18244 9.11137C4.42113 9.6738 4.65848 10.2368 4.89448 10.8004C5.31883 11.8144 5.74656 12.8588 5.84021 13.1592C5.95747 13.5287 6.08065 13.7801 6.21563 13.9522C6.28565 14.04 6.3658 14.1176 6.46029 14.1766C6.50951 14.2074 6.56217 14.2323 6.6172 14.2509C6.88717 14.3521 7.13351 14.3099 7.2879 14.2585C7.3785 14.2275 7.46471 14.185 7.54437 14.1319L7.54859 14.1302L9.93273 12.6437L12.6872 14.7545C12.7277 14.7857 12.7716 14.8119 12.8188 14.833C13.1495 14.9764 13.4701 15.027 13.7722 14.9865C14.0725 14.9443 14.3112 14.8186 14.4893 14.6761C14.6937 14.5113 14.8566 14.301 14.9651 14.0619L14.9727 14.0433L14.9752 14.0366L14.9769 14.0332V14.0315L14.9777 14.0307C14.9924 13.9944 15.0037 13.9568 15.0115 13.9185L17.5255 1.2427C17.5335 1.20212 17.5374 1.16087 17.5373 1.11953C17.5373 0.748321 17.3973 0.394834 17.0691 0.181392C16.7873 -0.00167916 16.4744 -0.0101157 16.2761 0.0050699C16.0635 0.0219428 15.8661 0.0742488 15.7336 0.116431C15.6595 0.139931 15.5863 0.166386 15.5143 0.195734L15.505 0.199952L1.40432 5.73089L1.40263 5.73173C1.35493 5.74928 1.30793 5.7687 1.26175 5.78995C1.14993 5.84022 1.04267 5.90006 0.94116 5.9688C0.749653 6.09956 0.308426 6.45896 0.383511 7.05288C0.442566 7.52532 0.766525 7.81638 0.964782 7.95643C1.07277 8.0332 1.17569 8.08803 1.25162 8.12431C1.28537 8.14118 1.35792 8.16987 1.38914 8.18337L1.39757 8.1859L4.07108 9.08522ZM15.9985 1.36418H15.9969C15.9896 1.36741 15.9823 1.3705 15.9749 1.37346L1.85736 6.91199C1.8501 6.91493 1.84278 6.91774 1.83542 6.92043L1.82699 6.92296C1.8012 6.9331 1.77586 6.94436 1.75106 6.95671C1.77454 6.97016 1.79876 6.98227 1.82361 6.99298L4.47435 7.88556C4.52171 7.90152 4.56703 7.92305 4.60933 7.94968L13.3638 2.82453L13.3723 2.82031C13.4063 2.79965 13.4412 2.78051 13.4769 2.76295C13.5376 2.73173 13.6346 2.68617 13.7443 2.65243C13.8202 2.62881 14.0455 2.56216 14.2885 2.64062C14.4173 2.68124 14.5322 2.75728 14.6199 2.86007C14.7076 2.96285 14.7647 3.08823 14.7845 3.22189C14.816 3.33895 14.8168 3.4621 14.7871 3.57959C14.728 3.8116 14.566 3.99214 14.4175 4.1305C14.291 4.24861 12.6501 5.83128 11.0312 7.39371L8.82671 9.5197L8.43442 9.89934L13.3883 13.6974C13.4552 13.7255 13.5278 13.7371 13.6001 13.7312C13.6365 13.7262 13.6707 13.711 13.6988 13.6873C13.733 13.6584 13.7623 13.6243 13.7857 13.5861L13.7873 13.5852L16.2255 1.29079C16.1487 1.30926 16.0734 1.33351 16.0002 1.36334L15.9985 1.36418ZM8.86046 11.8203L7.87171 11.0627L7.63211 12.5855L8.86046 11.8203ZM6.96479 9.55935L7.94763 8.61025L10.1521 6.48258L10.9729 5.69124L5.47238 8.91143L5.50191 8.98061C5.84882 9.80015 6.1919 10.6213 6.53115 11.4441L6.7699 9.92549C6.79151 9.78465 6.86021 9.65613 6.96479 9.55935Z" fill="#F5F5F5"/>
</svg>
