<svg width="19" height="15" viewBox="0 0 19 15" fill="none" xmlns="http://www.w3.org/2000/svg">
<path id="Vector" d="M9.375 0C6.76777 0 4.46377 0.2925 3.05769 0.516C1.89462 0.7005 0.956538 1.64925 0.742615 2.90625C0.561923 3.97575 0.375 5.54025 0.375 7.5C0.375 9.45975 0.561923 11.025 0.742615 12.0938C0.956538 13.3507 1.89462 14.3025 3.05769 14.4847C4.47 14.7067 6.78162 15 9.375 15C11.9684 15 14.2807 14.7075 15.6923 14.484C16.8554 14.3025 17.7935 13.3507 18.0074 12.0938C18.1881 11.0212 18.375 9.45375 18.375 7.5C18.375 5.54625 18.1908 3.97875 18.0074 2.90625C17.7935 1.64925 16.8554 0.7005 15.6923 0.51525C14.2862 0.29325 11.9815 0 9.375 0ZM9.375 1.5C11.8902 1.5 14.1374 1.77825 15.4978 1.992C15.7805 2.03578 16.0433 2.17478 16.2491 2.38934C16.4548 2.60389 16.5931 2.88312 16.6442 3.1875C16.8118 4.1775 16.9904 5.64525 16.9904 7.5C16.9904 9.35175 16.8118 10.8225 16.6442 11.8125C16.594 12.1173 16.456 12.3971 16.2501 12.6118C16.0442 12.8265 15.7808 12.9652 15.4978 13.008C14.1312 13.2218 11.8735 13.5 9.375 13.5C6.87577 13.5 4.61538 13.2218 3.25223 13.008C2.96936 12.9647 2.70631 12.8258 2.50048 12.6112C2.29466 12.3965 2.15654 12.1171 2.10577 11.8125C1.93823 10.8225 1.75962 9.35775 1.75962 7.5C1.75962 5.64 1.93823 4.1775 2.10577 3.1875C2.15654 2.88293 2.29466 2.60346 2.50048 2.38883C2.70631 2.1742 2.96936 2.03534 3.25223 1.992C4.60985 1.77825 6.85985 1.5 9.375 1.5ZM7.29808 3.21075V11.79L8.33654 11.157L13.1827 8.157L14.2212 7.5L13.1827 6.84375L8.33654 3.84375L7.29808 3.21075ZM8.68269 5.78925L11.4305 7.5L8.68269 9.21075V5.78925Z" fill="#F5F5F5"/>
</svg>
